<svg width="24" height="24" viewBox="0 0 24 24" fill="none" xmlns="http://www.w3.org/2000/svg">
<path d="M9.31399 13.661C3.98599 13.694 1.11999 16.571 1.02299 21.982C1.0206 22.1148 1.0447 22.2468 1.09388 22.3702C1.14306 22.4936 1.21634 22.606 1.30944 22.7007C1.40254 22.7955 1.51359 22.8708 1.6361 22.9222C1.75862 22.9735 1.89014 23 2.02299 23H16.618C16.7509 23.0001 16.8825 22.9738 17.005 22.9224C17.1276 22.8711 17.2387 22.7958 17.3318 22.701C17.425 22.6062 17.4982 22.4938 17.5474 22.3703C17.5965 22.2469 17.6205 22.1148 17.618 21.982C17.526 16.65 14.582 13.695 9.31399 13.661ZM21.478 11.202H20.216V9.93998C20.216 9.54215 20.058 9.16062 19.7766 8.87932C19.4953 8.59801 19.1138 8.43998 18.716 8.43998C18.3182 8.43998 17.9366 8.59801 17.6553 8.87932C17.374 9.16062 17.216 9.54215 17.216 9.93998V11.202H15.955C15.5572 11.202 15.1756 11.36 14.8943 11.6413C14.613 11.9226 14.455 12.3042 14.455 12.702C14.455 13.0998 14.613 13.4813 14.8943 13.7626C15.1756 14.0439 15.5572 14.202 15.955 14.202H17.216V15.464C17.216 15.8618 17.374 16.2433 17.6553 16.5246C17.9366 16.8059 18.3182 16.964 18.716 16.964C19.1138 16.964 19.4953 16.8059 19.7766 16.5246C20.058 16.2433 20.216 15.8618 20.216 15.464V14.202H21.478C21.8758 14.202 22.2573 14.0439 22.5386 13.7626C22.82 13.4813 22.978 13.0998 22.978 12.702C22.978 12.3042 22.82 11.9226 22.5386 11.6413C22.2573 11.36 21.8758 11.202 21.478 11.202ZM9.32599 12.309C12.937 12.288 14.881 10.338 14.948 6.63798C14.886 3.07798 12.837 1.02398 9.31399 1.00098C5.75299 1.02298 3.69199 3.12298 3.69199 6.67298C3.69199 10.223 5.75399 12.288 9.32599 12.309Z" fill="#F5F5F7"/>
</svg>
