<svg width="24" height="24" viewBox="0 0 24 24" fill="none" xmlns="http://www.w3.org/2000/svg">
<g clip-path="url(#clip0_100_43)">
<path d="M24 15V19C24 21.757 21.757 24 19 24H5C2.243 24 0 21.757 0 19V15C0 13.346 1.346 12 3 12H6C7.103 12 8 12.897 8 14C8 15.103 8.897 16 10 16H14C15.103 16 16 15.103 16 14C16 12.897 16.897 12 18 12H21C22.654 12 24 13.346 24 15ZM8.707 5.293L11 3V10C11 10.2652 11.1054 10.5196 11.2929 10.7071C11.4804 10.8946 11.7348 11 12 11C12.2652 11 12.5196 10.8946 12.7071 10.7071C12.8946 10.5196 13 10.2652 13 10V3L15.293 5.293C15.3857 5.38619 15.4958 5.46013 15.6171 5.5106C15.7385 5.56106 15.8686 5.58703 16 5.58703C16.1314 5.58703 16.2615 5.56106 16.3829 5.5106C16.5042 5.46013 16.6143 5.38619 16.707 5.293C16.7999 5.20021 16.8737 5.09001 16.924 4.96869C16.9743 4.84738 17.0002 4.71733 17.0002 4.586C17.0002 4.45467 16.9743 4.32462 16.924 4.20331C16.8737 4.08199 16.7999 3.97179 16.707 3.879L13.414 0.586C13.0426 0.214495 12.5393 0.00492665 12.014 0.003L12 0L11.986 0.003C11.4607 0.00481787 10.9574 0.214403 10.586 0.586L7.293 3.879C7.20016 3.97184 7.12651 4.08207 7.07626 4.20337C7.02601 4.32468 7.00015 4.4547 7.00015 4.586C7.00015 4.7173 7.02601 4.84732 7.07626 4.96863C7.12651 5.08993 7.20016 5.20016 7.293 5.293C7.38584 5.38584 7.49607 5.45949 7.61737 5.50974C7.73868 5.55999 7.8687 5.58585 8 5.58585C8.1313 5.58585 8.26132 5.55999 8.38263 5.50974C8.50393 5.45949 8.61415 5.38584 8.707 5.293Z" fill="#17AA80"/>
</g>
<defs>
<clipPath id="clip0_100_43">
<rect width="24" height="24" fill="white"/>
</clipPath>
</defs>
</svg>
